<svg width="142" height="142" viewBox="0 0 142 142" fill="none" xmlns="http://www.w3.org/2000/svg">
<rect width="142" height="142" fill="white"/>
<path d="M9 35H133V70H9V35Z" fill="black"/>
<path d="M9 73H133V108H9V73Z" fill="black"/>
<path d="M91.769 63C91.769 60.8853 91.769 58.7793 91.769 56.682C91.769 54.5673 91.769 52.4613 91.769 50.364C91.769 49.22 91.769 48.076 91.769 46.932C91.769 45.788 91.769 44.644 91.769 43.5H100.765C100.765 44.4533 100.765 45.4067 100.765 46.36C100.765 47.296 100.765 48.232 100.765 49.168C100.765 50.104 100.765 51.0487 100.765 52.002C100.765 52.938 100.765 53.8827 100.765 54.836C100.765 54.836 100.765 54.8447 100.765 54.862C100.765 54.862 100.765 54.8707 100.765 54.888C100.765 54.888 100.765 54.8967 100.765 54.914C100.765 55.018 100.765 55.2173 100.765 55.512C100.765 55.8067 100.765 56.1707 100.765 56.604C100.765 57.2107 100.765 57.904 100.765 58.684C100.765 59.4467 100.765 60.2093 100.765 60.972C100.765 61.7347 100.765 62.4107 100.765 63H91.769ZM109.787 54.472C109.77 54.4893 109.761 54.5067 109.761 54.524C109.761 54.524 109.77 54.5327 109.787 54.55L114.779 63H104.301C103.92 62.0987 103.53 61.206 103.131 60.322C102.75 59.438 102.36 58.554 101.961 57.67C101.58 56.7687 101.19 55.876 100.791 54.992C100.791 54.9747 100.782 54.966 100.765 54.966C100.765 54.9487 100.765 54.94 100.765 54.94C100.782 54.9227 100.791 54.914 100.791 54.914C100.791 54.8967 100.791 54.888 100.791 54.888L104.431 46.88H114.623L109.787 54.472Z" fill="white"/>
<path d="M77.725 63.78C76.0957 63.78 74.5704 63.598 73.149 63.234C71.745 62.87 70.5057 62.324 69.431 61.596C68.3737 60.8507 67.5417 59.9233 66.935 58.814C66.3284 57.7047 66.025 56.4133 66.025 54.94C66.025 54.1773 66.103 53.4667 66.259 52.808C66.4324 52.1493 66.675 51.5427 66.987 50.988C67.299 50.416 67.6717 49.896 68.105 49.428C68.5557 48.96 69.0584 48.544 69.613 48.18C70.3237 47.712 71.1037 47.3307 71.953 47.036C72.8024 46.724 73.7124 46.49 74.683 46.334C75.671 46.178 76.685 46.1 77.725 46.1C79.7184 46.1 81.5124 46.3773 83.107 46.932C84.719 47.4693 86.045 48.284 87.085 49.376C88.1424 50.468 88.801 51.8373 89.061 53.484L80.715 54.966C80.715 54.498 80.5677 54.1167 80.273 53.822C79.9784 53.5273 79.6057 53.3193 79.155 53.198C78.7044 53.0593 78.2277 52.99 77.725 52.99C77.1704 52.99 76.659 53.068 76.191 53.224C75.7404 53.3627 75.385 53.5793 75.125 53.874C74.865 54.1513 74.735 54.5067 74.735 54.94C74.735 55.2693 74.8044 55.5553 74.943 55.798C75.099 56.0407 75.3157 56.2487 75.593 56.422C75.8704 56.578 76.191 56.6993 76.555 56.786C76.919 56.8553 77.309 56.89 77.725 56.89C78.2104 56.89 78.6784 56.8293 79.129 56.708C79.597 56.5867 79.9784 56.3873 80.273 56.11C80.5677 55.8153 80.715 55.434 80.715 54.966C82.171 55.1393 83.5664 55.3213 84.901 55.512C86.2357 55.6853 87.631 55.8673 89.087 56.058C88.879 57.7393 88.255 59.1607 87.215 60.322C86.1924 61.466 84.8577 62.3327 83.211 62.922C81.5817 63.494 79.753 63.78 77.725 63.78Z" fill="white"/>
<path d="M54.4357 63C54.4357 62.2027 54.4357 61.414 54.4357 60.634C54.4357 59.8367 54.4357 59.048 54.4357 58.268C54.4357 57.4707 54.4357 56.682 54.4357 55.902C54.4357 55.5727 54.4357 55.2433 54.4357 54.914C54.4357 54.5847 54.4357 54.2553 54.4357 53.926C55.4411 53.926 56.4377 53.926 57.4257 53.926C58.4311 53.926 59.4364 53.926 60.4417 53.926C61.4471 53.926 62.4437 53.926 63.4317 53.926C63.4317 54.9313 63.4317 55.9367 63.4317 56.942C63.4317 57.9473 63.4317 58.9613 63.4317 59.984C63.4317 60.9893 63.4317 61.9947 63.4317 63H54.4357ZM54.4357 53.926C54.4357 52.7473 54.4357 51.5687 54.4357 50.39C54.4357 49.2113 54.4357 48.0413 54.4357 46.88H63.4317C63.4317 47.452 63.4317 48.024 63.4317 48.596C63.4317 49.168 63.4317 49.74 63.4317 50.312C63.4317 50.884 63.4317 51.456 63.4317 52.028C63.4317 52.028 63.4231 52.0367 63.4057 52.054C61.9151 52.366 60.4157 52.678 58.9077 52.99C57.4171 53.302 55.9264 53.614 54.4357 53.926Z" fill="white"/>
<path d="M51.764 43.5V51.404H45.498C45.498 51.404 45.4893 51.4127 45.472 51.43C45.472 51.43 45.4633 51.43 45.446 51.43C45.446 51.43 45.446 51.4387 45.446 51.456C45.446 52.2187 45.446 52.99 45.446 53.77C45.446 54.5327 45.446 55.304 45.446 56.084C45.446 56.8467 45.446 57.618 45.446 58.398C45.446 59.1607 45.446 59.932 45.446 60.712C45.446 61.4747 45.446 62.2373 45.446 63H34.656C34.656 61.7173 34.656 60.4347 34.656 59.152C34.656 57.8693 34.656 56.5867 34.656 55.304C34.656 54.0213 34.656 52.7387 34.656 51.456C34.656 51.4387 34.6473 51.43 34.63 51.43C34.63 51.4127 34.6213 51.404 34.604 51.404H28.338V43.5H51.764Z" fill="white"/>
<path d="M107.019 90.914C107.019 92.214 106.751 93.384 106.213 94.424C105.676 95.464 104.948 96.3567 104.029 97.102C103.128 97.8473 102.105 98.4193 100.961 98.818C99.8174 99.1993 98.63 99.39 97.3994 99.39C96.7754 99.39 96.1254 99.3293 95.4494 99.208C94.7907 99.104 94.1494 98.948 93.5254 98.74C92.9187 98.5147 92.3727 98.246 91.8874 97.934C91.8874 97.934 91.8787 97.934 91.8614 97.934C91.8614 97.934 91.8527 97.934 91.8354 97.934C91.8354 97.934 91.8354 97.9427 91.8354 97.96V102.12H82.8394C82.8394 101.045 82.8394 99.9793 82.8394 98.922C82.8394 97.8473 82.8394 96.7813 82.8394 95.724C82.8394 94.6493 82.8394 93.5833 82.8394 92.526C82.8394 91.4513 82.8394 90.3853 82.8394 89.328C82.8394 88.2533 82.8394 87.1873 82.8394 86.13C82.8394 85.0553 82.8394 83.972 82.8394 82.88H91.8354C91.8354 83.7987 91.8354 84.7 91.8354 85.584C91.8354 86.468 91.8354 87.352 91.8354 88.236C91.8354 89.12 91.8354 90.03 91.8354 90.966C91.8354 91.2953 91.922 91.5813 92.0954 91.824C92.2687 92.0667 92.5027 92.266 92.7974 92.422C93.092 92.578 93.4214 92.6993 93.7854 92.786C94.1667 92.8553 94.548 92.89 94.9294 92.89C95.6054 92.89 96.16 92.7947 96.5934 92.604C97.044 92.4133 97.3734 92.1707 97.5814 91.876C97.8067 91.5813 97.9194 91.278 97.9194 90.966C97.9194 90.6887 97.8587 90.4373 97.7374 90.212C97.616 89.9693 97.434 89.7613 97.1914 89.588C96.9487 89.3973 96.6367 89.25 96.2554 89.146C95.874 89.042 95.432 88.99 94.9294 88.99C94.2014 88.99 93.5514 89.12 92.9794 89.38C92.4247 89.64 92.052 90.0647 91.8614 90.654L93.9414 82.88C94.5134 82.7413 95.0767 82.646 95.6314 82.594C96.186 82.5247 96.732 82.49 97.2694 82.49C98.3267 82.49 99.3407 82.6113 100.311 82.854C101.299 83.0967 102.192 83.452 102.989 83.92C103.804 84.388 104.515 84.9687 105.121 85.662C105.728 86.338 106.196 87.118 106.525 88.002C106.855 88.8687 107.019 89.8393 107.019 90.914Z" fill="white"/>
<path d="M70.9901 99C70.9901 98.2027 70.9901 97.414 70.9901 96.634C70.9901 95.8367 70.9901 95.048 70.9901 94.268C70.9901 93.4707 70.9901 92.682 70.9901 91.902C70.9901 91.5727 70.9901 91.2433 70.9901 90.914C70.9901 90.5847 70.9901 90.2553 70.9901 89.926C71.9954 89.926 72.992 89.926 73.98 89.926C74.9854 89.926 75.9907 89.926 76.9961 89.926C78.0014 89.926 78.998 89.926 79.986 89.926C79.986 90.9313 79.986 91.9367 79.986 92.942C79.986 93.9473 79.986 94.9613 79.986 95.984C79.986 96.9893 79.986 97.9947 79.986 99H70.9901ZM70.9901 89.926C70.9901 88.7473 70.9901 87.5687 70.9901 86.39C70.9901 85.2113 70.9901 84.0413 70.9901 82.88H79.986C79.986 83.452 79.986 84.024 79.986 84.596C79.986 85.168 79.986 85.74 79.986 86.312C79.986 86.884 79.986 87.456 79.986 88.028C79.986 88.028 79.9774 88.0367 79.9601 88.054C78.4694 88.366 76.9701 88.678 75.4621 88.99C73.9714 89.302 72.4807 89.614 70.9901 89.926Z" fill="white"/>
<path d="M59.1408 99C59.1408 97.6133 59.1408 96.2353 59.1408 94.866C59.1408 93.4793 59.1408 92.1013 59.1408 90.732C59.1408 89.3453 59.1408 87.9673 59.1408 86.598C59.1408 85.4193 59.1408 84.2407 59.1408 83.062C59.1408 81.866 59.1408 80.6787 59.1408 79.5H68.1368C68.1368 80.228 68.1368 80.956 68.1368 81.684C68.1368 82.3947 68.1368 83.114 68.1368 83.842C68.1368 86.3553 68.1368 88.8773 68.1368 91.408C68.1368 93.9387 68.1368 96.4693 68.1368 99H59.1408Z" fill="white"/>
<path d="M56.386 87.144H45.336C45.336 87.144 45.336 87.1527 45.336 87.17V88.678C45.336 88.6953 45.336 88.704 45.336 88.704H55.996V94.892H45.336C45.336 94.892 45.336 94.9007 45.336 94.918C45.336 95.5073 45.336 96.0013 45.336 96.4C45.336 96.7813 45.336 97.1627 45.336 97.544C45.336 97.9253 45.336 98.4107 45.336 99H34.52C34.52 97.7693 34.52 96.5387 34.52 95.308C34.52 94.0773 34.52 92.8553 34.52 91.642C34.52 90.4113 34.52 89.1807 34.52 87.95C34.52 86.7193 34.52 85.4887 34.52 84.258C34.52 83.4607 34.52 82.672 34.52 81.892C34.52 81.0947 34.52 80.2973 34.52 79.5H56.386V87.144Z" fill="white"/>
</svg>
